<?xml version="1.0" encoding="UTF-8" standalone="no"?>
<!-- Generator: Adobe Illustrator 19.0.0, SVG Export Plug-In . SVG Version: 6.00 Build 0)  -->

<svg
   version="1.1"
   id="Layer_1"
   x="0px"
   y="0px"
   viewBox="0 0 469.333 469.333"
   style="enable-background:new 0 0 469.333 469.333;"
   xml:space="preserve"
   sodipodi:docname="chef_icon.svg"
   inkscape:export-filename="C:\Users\tazza\Desktop\Ikony\chef_icon.png"
   inkscape:export-xdpi="300"
   inkscape:export-ydpi="300"
   inkscape:version="1.1 (c68e22c387, 2021-05-23)"
   xmlns:inkscape="http://www.inkscape.org/namespaces/inkscape"
   xmlns:sodipodi="http://sodipodi.sourceforge.net/DTD/sodipodi-0.dtd"
   xmlns="http://www.w3.org/2000/svg"
   xmlns:svg="http://www.w3.org/2000/svg"><defs
   id="defs49" /><sodipodi:namedview
   id="namedview47"
   pagecolor="#121212"
   bordercolor="#000000"
   borderopacity="1"
   inkscape:pageshadow="2"
   inkscape:pageopacity="1"
   inkscape:pagecheckerboard="false"
   showgrid="false"
   inkscape:zoom="1.8600865"
   inkscape:cx="239.23619"
   inkscape:cy="234.66651"
   inkscape:window-width="1920"
   inkscape:window-height="1137"
   inkscape:window-x="1912"
   inkscape:window-y="-8"
   inkscape:window-maximized="1"
   inkscape:current-layer="Layer_1"
   showborder="true" />

<g
   id="g16"
   style="fill:#dedede;fill-opacity:1.0">
</g>
<g
   id="g18"
   style="fill:#dedede;fill-opacity:1.0">
</g>
<g
   id="g20"
   style="fill:#dedede;fill-opacity:1.0">
</g>
<g
   id="g22"
   style="fill:#dedede;fill-opacity:1.0">
</g>
<g
   id="g24"
   style="fill:#dedede;fill-opacity:1.0">
</g>
<g
   id="g26"
   style="fill:#dedede;fill-opacity:1.0">
</g>
<g
   id="g28"
   style="fill:#dedede;fill-opacity:1.0">
</g>
<g
   id="g30"
   style="fill:#dedede;fill-opacity:1.0">
</g>
<g
   id="g32"
   style="fill:#dedede;fill-opacity:1.0">
</g>
<g
   id="g34"
   style="fill:#dedede;fill-opacity:1.0">
</g>
<g
   id="g36"
   style="fill:#dedede;fill-opacity:1.0">
</g>
<g
   id="g38"
   style="fill:#dedede;fill-opacity:1.0">
</g>
<g
   id="g40"
   style="fill:#dedede;fill-opacity:1.0">
</g>
<g
   id="g42"
   style="fill:#dedede;fill-opacity:1.0">
</g>
<g
   id="g44"
   style="fill:#dedede;fill-opacity:1.0">
</g>
<g
   id="g14"
   style="fill:#dedede;fill-opacity:1"
   transform="matrix(0.50744558,0,0,0.50744558,115.58577,115.58603)"><g
     id="g12"
     style="fill:#dedede;fill-opacity:1"><g
       id="g10"
       style="fill:#dedede;fill-opacity:1"><path
         d="m 128,224 c 0,-5.896 -4.771,-10.667 -10.667,-10.667 -5.896,0 -10.667,4.771 -10.667,10.667 0,28.01 30.896,66.469 34.417,70.771 2.115,2.563 5.177,3.896 8.26,3.896 2.375,0 4.771,-0.792 6.76,-2.417 4.552,-3.74 5.208,-10.458 1.479,-15.021 C 146.146,267.292 128,239.437 128,224 Z"
         id="path2"
         style="fill:#dedede;fill-opacity:1" /><path
         d="m 352,213.333 c -5.896,0 -10.667,4.771 -10.667,10.667 0,15.385 -18.146,43.271 -29.583,57.24 -3.729,4.552 -3.063,11.271 1.49,15.01 1.979,1.625 4.375,2.417 6.76,2.417 3.083,0 6.135,-1.333 8.25,-3.896 3.521,-4.302 34.417,-42.76 34.417,-70.771 0,-5.896 -4.771,-10.667 -10.667,-10.667 z"
         id="path4"
         style="fill:#dedede;fill-opacity:1" /><path
         d="M 234.667,213.333 C 228.771,213.333 224,218.104 224,224 v 64 c 0,5.896 4.771,10.667 10.667,10.667 5.896,0 10.667,-4.771 10.667,-10.667 v -64 c -0.001,-5.896 -4.772,-10.667 -10.667,-10.667 z"
         id="path6"
         style="fill:#dedede;fill-opacity:1" /><path
         d="m 352,42.667 c -6.464,0 -13.219,0.855 -20.234,2.158 C 308.273,17.439 273.496,0 234.667,0 195.838,0 161.06,17.439 137.568,44.824 130.552,43.522 123.797,42.666 117.334,42.666 52.635,42.667 0,95.302 0,160 0,204.333 25,244.635 64.25,264.562 L 64.042,425.76 c -0.01,11.635 4.51,22.573 12.729,30.802 8.229,8.24 19.156,12.771 30.792,12.771 h 254.25 c 24,0 43.521,-19.521 43.521,-43.521 V 264.406 c 39.104,-19.979 64,-60.219 64,-104.406 C 469.333,95.302 416.698,42.667 352,42.667 Z m 32,383.146 c 0,12.229 -9.958,22.188 -22.188,22.188 h -254.25 c -5.927,0 -11.5,-2.313 -15.698,-6.51 -4.188,-4.198 -6.5,-9.771 -6.49,-15.708 L 85.43,384 H 384 Z m 6.604,-178.011 c -0.563,0.229 -1.094,0.5 -1.594,0.823 -1.344,0.833 -2.448,1.938 -3.271,3.208 -0.833,1.26 -1.396,2.719 -1.625,4.281 -0.094,0.594 -0.125,1.188 -0.115,1.792 v 104.76 H 85.457 l 0.137,-104.615 c 0.01,-0.583 -0.021,-1.177 -0.104,-1.75 -0.229,-1.615 -0.823,-3.115 -1.688,-4.417 -0.813,-1.219 -1.875,-2.281 -3.167,-3.094 -0.531,-0.333 -1.094,-0.625 -1.677,-0.865 -35.01,-15.31 -57.625,-49.79 -57.625,-87.925 0,-52.938 43.063,-96 96,-96 2.069,0 4.253,0.25 6.396,0.419 -10.792,18.756 -17.063,40.43 -17.063,63.581 0,5.896 4.771,10.667 10.667,10.667 5.896,0 10.667,-4.771 10.667,-10.667 0,-58.813 47.854,-106.667 106.667,-106.667 58.813,0 106.666,47.854 106.666,106.667 0,5.896 4.771,10.667 10.667,10.667 5.896,0 10.667,-4.771 10.667,-10.667 0,-23.151 -6.271,-44.824 -17.063,-63.581 C 347.747,64.25 349.931,64 352,64 c 52.938,0 96,43.063 96,96 0,38 -22.521,72.437 -57.396,87.802 z"
         id="path8"
         style="fill:#dedede;fill-opacity:1" /></g></g></g></svg>
