<?xml version="1.0" encoding="UTF-8" standalone="no"?>
<!-- Generator: Adobe Illustrator 18.0.0, SVG Export Plug-In . SVG Version: 6.00 Build 0)  -->

<svg
   version="1.1"
   id="Capa_1"
   x="0px"
   y="0px"
   viewBox="0 0 52.495 52.495"
   style="enable-background:new 0 0 52.495 52.495;"
   xml:space="preserve"
   sodipodi:docname="share.svg"
   inkscape:version="1.1 (c68e22c387, 2021-05-23)"
   xmlns:inkscape="http://www.inkscape.org/namespaces/inkscape"
   xmlns:sodipodi="http://sodipodi.sourceforge.net/DTD/sodipodi-0.dtd"
   xmlns="http://www.w3.org/2000/svg"
   xmlns:svg="http://www.w3.org/2000/svg"><defs
   id="defs41" /><sodipodi:namedview
   id="namedview39"
   pagecolor="#505050"
   bordercolor="#eeeeee"
   borderopacity="1"
   inkscape:pageshadow="0"
   inkscape:pageopacity="0"
   inkscape:pagecheckerboard="0"
   showgrid="false"
   inkscape:zoom="16.630156"
   inkscape:cx="26.217434"
   inkscape:cy="26.247499"
   inkscape:window-width="1920"
   inkscape:window-height="1129"
   inkscape:window-x="-8"
   inkscape:window-y="-8"
   inkscape:window-maximized="1"
   inkscape:current-layer="Capa_1" />
<g
   id="g6"
   style="fill:#dedede;fill-opacity:1.0"
   inkscape:export-filename="C:\Users\tazza\Desktop\share_300.png"
   inkscape:export-xdpi="300"
   inkscape:export-ydpi="300">
	<path
   style="fill:#dedede;fill-opacity:1.0"
   d="M31.113,16.038V3.99l19.971,20.08l-19.971,20.08V32.102c0,0-17.735-4.292-29.849,16.064   c0,0-3.02-15.536,10.51-26.794C11.774,21.371,17.903,15.64,31.113,16.038z"
   id="path2" />
	<path
   style="fill:#dedede;fill-opacity:1.0"
   d="M0.783,50.929l-0.5-2.573c-0.031-0.161-2.974-16.25,10.852-27.753   c0.202-0.191,6.116-5.585,18.674-5.585c0.102,0,0.203,0,0.305,0.001V1.566L52.495,24.07L30.113,46.574V32.937   c-0.662-0.098-1.725-0.213-3.071-0.213c-5.761,0-16.657,2.073-24.918,15.953L0.783,50.929z M29.808,17.018   c-11.776,0-17.297,5.033-17.352,5.084C2.911,30.046,1.878,40.274,2.004,45.149C14.365,27.091,31.127,31.077,31.348,31.13   l0.765,0.185v10.411L49.674,24.07L32.113,6.413v10.654l-1.03-0.03C30.65,17.024,30.226,17.018,29.808,17.018z"
   id="path4" />
</g>
<g
   id="g8">
</g>
<g
   id="g10">
</g>
<g
   id="g12">
</g>
<g
   id="g14">
</g>
<g
   id="g16">
</g>
<g
   id="g18">
</g>
<g
   id="g20">
</g>
<g
   id="g22">
</g>
<g
   id="g24">
</g>
<g
   id="g26">
</g>
<g
   id="g28">
</g>
<g
   id="g30">
</g>
<g
   id="g32">
</g>
<g
   id="g34">
</g>
<g
   id="g36">
</g>
</svg>
